<svg xmlns="http://www.w3.org/2000/svg" xmlns:xlink="http://www.w3.org/1999/xlink" viewBox="0 0 270.01 268.28"><defs><style>.cls-1{fill:none;}.cls-2{clip-path:url(#clip-path);}.cls-3{fill:#fff;}.cls-4{fill:#e2e6f0;}</style><clipPath id="clip-path" transform="translate(0 -3.55)"><rect class="cls-1" x="0.79" width="271.58" height="277.65"/></clipPath></defs><title>Asset 1</title><g id="Layer_2" data-name="Layer 2"><g id="Layer_1-2" data-name="Layer 1"><g class="cls-2"><path class="cls-3" d="M94.93,213.69l-40,21.8a36.67,36.67,0,0,0-6.42,4.57,133.94,133.94,0,0,0,172.07.44,35.5,35.5,0,0,0-7-4.72l-42.82-21.41a16.35,16.35,0,0,1-9-14.62V183a59.16,59.16,0,0,0,4.05-5.21,98.18,98.18,0,0,0,13.31-26.82,13.45,13.45,0,0,0,9.56-12.79V120.22a13.35,13.35,0,0,0-4.49-10V84.34S189.46,44,134.81,44,85.51,84.34,85.51,84.34v25.93a13.37,13.37,0,0,0-4.49,10v17.93a13.51,13.51,0,0,0,6.2,11.28A89.07,89.07,0,0,0,103.44,183v16.4a16.37,16.37,0,0,1-8.52,14.32Zm0,0" transform="translate(0 -3.55)"/><path class="cls-4" d="M137.1,3.57A133.93,133.93,0,0,0,48.58,240a38.21,38.21,0,0,1,6.34-4.52l40-21.8a16.32,16.32,0,0,0,8.49-14.34V183a89,89,0,0,1-16.2-33.56A13.38,13.38,0,0,1,81,138.15v-18a13.43,13.43,0,0,1,4.47-9.93V84.34S80.19,44,134.81,44s49.32,40.35,49.32,40.35v25.93a13.4,13.4,0,0,1,4.47,9.93v18a13.46,13.46,0,0,1-9.53,12.79,98.9,98.9,0,0,1-13.31,26.82c-1.49,2.07-2.84,3.82-4.05,5.21v16.79a16.33,16.33,0,0,0,9,14.62l42.84,21.41a35,35,0,0,1,7,4.7A134,134,0,0,0,137.1,3.57Zm0,0" transform="translate(0 -3.55)"/></g><path class="cls-4" d="M135,271.82c-74.44,0-135-60-135-133.78S60.56,4.27,135,4.27,270,64.28,270,138,209.45,271.82,135,271.82Zm0-266C61.42,5.85,1.56,65.15,1.56,138S61.42,270.24,135,270.24,268.45,210.94,268.45,138,208.59,5.85,135,5.85Z" transform="translate(0 -3.55)"/></g></g></svg>