<svg xmlns="http://www.w3.org/2000/svg" viewBox="0 0 270.01 267.95"><defs><style>.cls-1{fill:#fff;}.cls-2{fill:#e2e6f0;}</style></defs><title>Asset 2</title><g id="Layer_2" data-name="Layer 2"><g id="Layer_1-2" data-name="Layer 1"><path class="cls-1" d="M59.29,225.69l46.07-19.75c2.5-1.23,4.52-5.28,6-8.15a3.94,3.94,0,0,0-3.53-5.68H75.19s-11.77-1.13-20.86-5c-5.33-2.3-7.16-5.31-3.82-10C60.23,163.18,80.35,130.54,81,96.87c0,0,1.14-51.87,52.28-52.28,29.85.25,43.95,17.82,50.51,32.41,3.65,8.15,5.23,17,5.82,25.92,2.12,32.12,18.47,61.5,26.09,74a9.12,9.12,0,0,1-2.93,12.49c-7,4.17-15.6,2.66-15.6,2.66H164.38c-3.21,0-4.64,4.49-2.12,6.47a44.8,44.8,0,0,0,5.09,3.65l38.32,23.21a33,33,0,0,1,12.93,12.79,133.91,133.91,0,0,1-171.18-2.44,33.28,33.28,0,0,1,11.87-10.1Zm0,0"/><path class="cls-2" d="M135.18,0A133.95,133.95,0,0,0,47.74,235.44a32.87,32.87,0,0,1,11.55-9.75l46.07-19.75c2.5-1.23,4.54-5.28,6-8.15a4,4,0,0,0-3.56-5.68H75.19s-11.77-1.13-20.86-5c-5.33-2.3-7.16-5.31-3.82-10C60.23,163.18,80.35,130.54,81,96.87c0,0,1.11-51.87,52.26-52.28,29.85.25,43.95,17.82,50.51,32.41,3.65,8.15,5.23,17,5.82,25.92,2.12,32.12,18.47,61.5,26.09,74a9.12,9.12,0,0,1-2.93,12.49c-7,4.17-15.6,2.66-15.6,2.66H164.38c-3.21,0-4.64,4.49-2.12,6.47a44.8,44.8,0,0,0,5.09,3.65l38.32,23.21a33.09,33.09,0,0,1,12.86,12.66c.12.12.27.25.42.37A133.93,133.93,0,0,0,135.18,0Zm0,0"/><path class="cls-2" d="M135,267.95c-74.44,0-135-60-135-133.78S60.56.39,135,.39s135,60,135,133.78S209.45,267.95,135,267.95ZM135,2C61.42,2,1.56,61.27,1.56,134.17S61.42,266.37,135,266.37s133.44-59.3,133.44-132.2S208.59,2,135,2Z"/></g></g></svg>