<svg xmlns="http://www.w3.org/2000/svg" viewBox="0 0 159.66 138.11"><title>Asset 16</title><g id="Layer_2" data-name="Layer 2"><g id="Layer_1-2" data-name="Layer 1"><path d="M159.66,58.9C159.66,26.42,123.85,0,79.83,0S0,26.42,0,58.9s35.81,58.9,79.83,58.9c4.28,0,11.2-.67,14.53-1,20.26,17.22,28.92,21.33,33.46,21.33a5.85,5.85,0,0,0,2.78-.65,5,5,0,0,0,2.66-4.82l-.09-1-.62-.77a31.44,31.44,0,0,1-6.89-23.72C147,96.16,159.66,78.12,159.66,58.9ZM44.52,64.54a6.82,6.82,0,1,1,6.82-6.82A6.82,6.82,0,0,1,44.52,64.54Zm33.84,0a6.82,6.82,0,1,1,6.82-6.82A6.82,6.82,0,0,1,78.37,64.54Zm33.84,0A6.82,6.82,0,1,1,119,57.72,6.82,6.82,0,0,1,112.21,64.54Z"/></g></g></svg>