<svg xmlns="http://www.w3.org/2000/svg" viewBox="0 0 73.14 63.26"><defs><style>.cls-1{fill:#231f20;}.cls-2{fill:none;stroke:#231f20;stroke-miterlimit:10;stroke-width:3px;}</style></defs><title>Asset 7</title><g id="Layer_2" data-name="Layer 2"><g id="Layer_1-2" data-name="Layer 1"><circle class="cls-1" cx="36.35" cy="26.78" r="3.16"/><circle class="cls-1" cx="20.65" cy="26.78" r="3.16"/><circle class="cls-1" cx="52.05" cy="26.78" r="3.16"/><path class="cls-2" d="M36.57,1.5C55.94,1.5,71.64,12.91,71.64,27c0,8.57-5.83,16.16-14.77,20.78A1.56,1.56,0,0,0,56,49a16.09,16.09,0,0,0,3.51,11.94S60,65.81,44,52.18a.89.89,0,0,0-.67-.21c-1.16.13-4.71.49-6.76.49C17.2,52.46,1.5,41.05,1.5,27S17.2,1.5,36.57,1.5Z"/></g></g></svg>