<svg xmlns="http://www.w3.org/2000/svg" viewBox="0 0 65.91 43"><title>Asset 22</title><g id="Layer_2" data-name="Layer 2"><g id="Layer_1-2" data-name="Layer 1"><path d="M53.59,18.21c0,6.83-4.5,12.9-11.42,16.67l1,0c1.35,0,3.78-.25,4.5-.33h.2A1.87,1.87,0,0,1,49,35a50.93,50.93,0,0,0,7.48,5.59,12.23,12.23,0,0,1-1.3-7,2.32,2.32,0,0,1,1.24-1.78c5.91-3.05,9.44-8,9.44-13.12,0-8.77-9.85-15.93-22.09-16.19C49.8,6.32,53.59,11.95,53.59,18.21Z"/><path d="M51.08,18.21C51.08,8.17,39.63,0,25.54,0S0,8.17,0,18.21C0,24,4,29.55,10.6,33a2.45,2.45,0,0,1,1.31,1.88A13.51,13.51,0,0,1,10.25,43c1.42-.73,4.06-2.45,8.8-6.48a1.94,1.94,0,0,1,1.46-.45c.79.09,3.51.37,5,.37C39.63,36.43,51.08,28.26,51.08,18.21Z"/></g></g></svg>