<svg xmlns="http://www.w3.org/2000/svg" viewBox="0 0 63.26 43.43"><defs><style>.cls-1{fill:none;}</style></defs><title>Asset 21</title><g id="Layer_2" data-name="Layer 2"><g id="Layer_1-2" data-name="Layer 1"><path class="cls-1" d="M50.21,18.52c0,6.17-4.11,11.64-10.42,15l1,0c1.21,0,3.38-.22,4-.29H45a1.59,1.59,0,0,1,1,.38A42.32,42.32,0,0,0,53,38.76a10.83,10.83,0,0,1-1.29-6.45,2,2,0,0,1,1.06-1.52C58,28,61.2,23.64,61.2,19c0-7.87-8.81-14.29-19.76-14.53C46.8,7.87,50.21,12.91,50.21,18.52Z"/><path class="cls-1" d="M35.79,33.1c7.34-2.76,12.36-8.26,12.36-14.58,0-5.82-4.25-10.94-10.65-13.87a28.52,28.52,0,0,1,3.3-.19h.64a26.56,26.56,0,0,0-3.63-1.92,29.06,29.06,0,0,0-4.09.7,31.07,31.07,0,0,0-8.61-1.2c-12.71,0-23,7.39-23,16.46,0,5.26,3.58,10.25,9.58,13.35a2.1,2.1,0,0,1,1.12,1.61A12,12,0,0,1,11.12,41c1.22-.57,3.63-2.08,8.21-6a1.66,1.66,0,0,1,1.24-.39c.72.08,3.17.33,4.53.33a31.53,31.53,0,0,0,6.81-.73,28.2,28.2,0,0,0,4.06,1,28.08,28.08,0,0,0,3.82-1.69A28,28,0,0,1,35.79,33.1Z"/><path d="M63.26,19c0-9.15-10.08-16.6-22.46-16.6-1,0-2,.05-3,.15a26.56,26.56,0,0,1,3.63,1.92C52.39,4.72,61.2,11.14,61.2,19c0,4.64-3.16,9-8.47,11.78a2,2,0,0,0-1.06,1.52A10.83,10.83,0,0,0,53,38.76,42.32,42.32,0,0,1,46,33.62a1.59,1.59,0,0,0-1-.38h-.16c-.64.07-2.81.29-4,.29l-1,0A28.08,28.08,0,0,1,36,35.22a30.08,30.08,0,0,0,4.83.39c1.18,0,3.08-.18,4-.28,5.66,4.81,8.12,6,9.42,6a1.72,1.72,0,0,0,.82-.19,1.51,1.51,0,0,0,.81-1.46l0-.31-.19-.24a9,9,0,0,1-2-6.47C59.68,29.52,63.26,24.43,63.26,19Z"/><path d="M37.5,4.66c6.4,2.93,10.65,8,10.65,13.87,0,6.32-5,11.82-12.36,14.58a28,28,0,0,0,4,.43c6.3-3.37,10.42-8.84,10.42-15,0-5.61-3.41-10.65-8.77-14H40.8A28.52,28.52,0,0,0,37.5,4.66Z"/><path d="M25.1,35c-1.36,0-3.81-.25-4.53-.33a1.66,1.66,0,0,0-1.24.39c-4.58,3.9-7,5.41-8.21,6a12,12,0,0,0,1.64-7.54,2.1,2.1,0,0,0-1.12-1.61c-6-3.1-9.58-8.09-9.58-13.35,0-9.08,10.34-16.46,23-16.46a31.07,31.07,0,0,1,8.61,1.2,29.06,29.06,0,0,1,4.09-.7A32,32,0,0,0,25.1,0C11.26,0,0,8.31,0,18.52c0,6,4,11.72,10.72,15.21a10,10,0,0,1-2.19,7.42l-.19.24,0,.31a1.57,1.57,0,0,0,.84,1.52,1.83,1.83,0,0,0,.87.2c1.43,0,4.15-1.29,10.52-6.71,1,.11,3.23.32,4.57.32A32.5,32.5,0,0,0,36,35.22a28.2,28.2,0,0,1-4.06-1A31.53,31.53,0,0,1,25.1,35Z"/><path d="M37.5,4.66a28.52,28.52,0,0,1,3.3-.19h.64a26.56,26.56,0,0,0-3.63-1.92,29.07,29.07,0,0,0-4.09.7A27.3,27.3,0,0,1,37.5,4.66Z"/><path d="M35.79,33.1a28.62,28.62,0,0,1-3.87,1.15,28.19,28.19,0,0,0,4.06,1,28.08,28.08,0,0,0,3.82-1.69A28,28,0,0,1,35.79,33.1Z"/></g></g></svg>