<svg xmlns="http://www.w3.org/2000/svg" viewBox="0 0 148 134.62"><defs><style>.cls-1{fill:none;}</style></defs><title>ban pr13</title><g id="Layer_2" data-name="Layer 2"><g id="Layer_1-2" data-name="Layer 1"><path class="cls-1" d="M91.16,81H86.57a30.57,30.57,0,0,0,.71,35.92l24.43-22.34A22.36,22.36,0,0,0,91.16,81Z"/><path class="cls-1" d="M115.87,90.75l16.52-15.11a30.57,30.57,0,0,0-41-.06A27.74,27.74,0,0,1,115.87,90.75Z"/><path class="cls-1" d="M136.08,79.59,117.94,96.18a27.55,27.55,0,0,1,1,7.1v7.51a2.7,2.7,0,0,1-5.41,0v-7.51a22.28,22.28,0,0,0-.2-2.85L90.89,120.92a30.71,30.71,0,0,0,45.19-41.32Z"/><path d="M111.84,62.3A36.16,36.16,0,1,0,148,98.46,36.1,36.1,0,0,0,111.84,62.3ZM81.08,98.46A30.56,30.56,0,0,1,86.57,81a31,31,0,0,1,4.78-5.39,30.57,30.57,0,0,1,41,.06L115.87,90.75l-4.16,3.8L87.28,116.9A30.56,30.56,0,0,1,81.08,98.46Zm30.76,30.76a30.61,30.61,0,0,1-20.95-8.3l22.39-20.48,4.65-4.25,18.14-16.59a30.71,30.71,0,0,1-24.24,49.62Z"/><ellipse cx="59.45" cy="32.39" rx="32.43" ry="32.39"/><path d="M83.87,75.58H27.73A27.75,27.75,0,0,0,0,103.3l0,7.52a2.69,2.69,0,0,0,2.72,2.68H81.08V79.55A36,36,0,0,1,83.87,75.58Z"/></g></g></svg>