<svg xmlns="http://www.w3.org/2000/svg" viewBox="0 0 148.01 134.63"><defs><style>.cls-1{fill:none;}</style></defs><title>ban 3</title><g id="Layer_2" data-name="Layer 2"><g id="Layer_1-2" data-name="Layer 1"><path class="cls-1" d="M91.17,81h-4.6a30.57,30.57,0,0,0,.71,35.92l24.43-22.34A22.36,22.36,0,0,0,91.17,81Z"/><path class="cls-1" d="M59.45,59.39a27,27,0,1,0-27-27A27,27,0,0,0,59.45,59.39Z"/><path class="cls-1" d="M115.87,90.76,132.4,75.65a30.57,30.57,0,0,0-41-.06A27.74,27.74,0,0,1,115.87,90.76Z"/><path class="cls-1" d="M136.09,79.6,117.95,96.19a27.55,27.55,0,0,1,1,7.1v7.52a2.7,2.7,0,0,1-5.41,0v-7.52a22.28,22.28,0,0,0-.2-2.85L90.9,120.93A30.71,30.71,0,0,0,136.09,79.6Z"/><path d="M59.45,64.79A32.39,32.39,0,1,0,27,32.39,32.41,32.41,0,0,0,59.45,64.79Zm0-59.39a27,27,0,1,1-27,27A27,27,0,0,1,59.45,5.4Z"/><path d="M27.74,75.58A27.76,27.76,0,0,0,0,103.3l0,7.52a2.7,2.7,0,0,0,5.4,0l0-7.5A22.34,22.34,0,0,1,27.74,81H80.21a36.32,36.32,0,0,1,3.66-5.4Z"/><path d="M111.85,62.31A36.16,36.16,0,1,0,148,98.47,36.1,36.1,0,0,0,111.85,62.31ZM81.09,98.47A30.57,30.57,0,0,1,86.57,81a31,31,0,0,1,4.78-5.39,30.57,30.57,0,0,1,41,.06L115.87,90.76l-4.16,3.8L87.29,116.91A30.56,30.56,0,0,1,81.09,98.47Zm30.76,30.76a30.61,30.61,0,0,1-20.95-8.3l22.4-20.48,4.65-4.25L136.09,79.6a30.71,30.71,0,0,1-24.24,49.63Z"/></g></g></svg>