<svg xmlns="http://www.w3.org/2000/svg" viewBox="0 0 159.66 138.11"><title>chat  2</title><g id="Layer_2" data-name="Layer 2"><g id="Layer_1-2" data-name="Layer 1"><circle cx="78.37" cy="57.72" r="6.82"/><circle cx="44.52" cy="57.72" r="6.82"/><circle cx="112.21" cy="57.72" r="6.82"/><path d="M127.82,138.11c-4.53,0-13.2-4.11-33.46-21.33-3.33.35-10.25,1-14.53,1C35.81,117.8,0,91.38,0,58.9S35.81,0,79.83,0s79.83,26.42,79.83,58.9c0,19.22-12.71,37.27-34,48.27a31.44,31.44,0,0,0,6.89,23.72l.62.77.09,1a5,5,0,0,1-2.66,4.82A5.85,5.85,0,0,1,127.82,138.11Zm-33-27.94a5.26,5.26,0,0,1,3.4,1.26c14.56,12.41,22.23,17.19,26.1,19a38.31,38.31,0,0,1-5.21-24,6.68,6.68,0,0,1,3.58-5.12c19.07-9.86,30.46-25.73,30.46-42.45,0-28.87-32.88-52.35-73.28-52.35S6.55,30,6.55,58.9s32.88,52.35,73.28,52.35c4.35,0,12.13-.81,14.41-1.05A4.93,4.93,0,0,1,94.79,110.17Z"/></g></g></svg>