<svg xmlns="http://www.w3.org/2000/svg" viewBox="0 0 44 41.01"><title>house 2</title><g id="Layer_2" data-name="Layer 2"><g id="icons"><path id="feed" d="M3,39a1,1,0,0,1-1-1V23a3,3,0,0,1,.89-2.16L21.42,2.25a.82.82,0,0,1,1.16,0L41.11,20.86A3,3,0,0,1,42,23V38a1,1,0,0,1-1,1H29a1,1,0,0,1-1-1V29a6,6,0,1,0-12,0v9a1,1,0,0,1-1,1H3M22,0a2.81,2.81,0,0,0-2,.83L1.48,19.44A5.08,5.08,0,0,0,0,23V38a3,3,0,0,0,3,3H15a3,3,0,0,0,3-3V29a4,4,0,1,1,8,0v9a3,3,0,0,0,3,3H41a3,3,0,0,0,3-3V23a5.08,5.08,0,0,0-1.48-3.58L24,.83A2.81,2.81,0,0,0,22,0"/></g></g></svg>