<svg xmlns="http://www.w3.org/2000/svg" xmlns:xlink="http://www.w3.org/1999/xlink" viewBox="0 0 186.07 176.42"><defs><style>.cls-1{clip-rule:evenodd;}.cls-2{fill-rule:evenodd;}.cls-3{clip-path:url(#clip-path);}.cls-4{clip-path:url(#clip-path-2);}</style><clipPath id="clip-path"><path class="cls-1" d="M93,17.23a6.65,6.65,0,0,0-4.71,1.95l-66,66a17.37,17.37,0,0,0-5.09,12.29v51.28a10.44,10.44,0,0,0,10.44,10.44H65.49a10.32,10.32,0,0,0,10.32-10.32v-31a17.23,17.23,0,0,1,34.46,0v31a10.32,10.32,0,0,0,10.32,10.32H158.4a10.44,10.44,0,0,0,10.44-10.44V97.48a17.39,17.39,0,0,0-5.09-12.29l-66-66A6.63,6.63,0,0,0,93,17.23"/></clipPath><clipPath id="clip-path-2"><rect x="17.23" y="0.69" width="158.5" height="165.4"/></clipPath></defs><title>house pr8</title><g id="Layer_2" data-name="Layer 2"><g id="Layer_1-2" data-name="Layer 1"><path class="cls-2" d="M93,17.23a6.65,6.65,0,0,0-4.71,1.95l-66,66a17.37,17.37,0,0,0-5.09,12.29v51.28a10.44,10.44,0,0,0,10.44,10.44H65.49a10.32,10.32,0,0,0,10.32-10.32v-31a17.23,17.23,0,0,1,34.46,0v31a10.32,10.32,0,0,0,10.32,10.32H158.4a10.44,10.44,0,0,0,10.44-10.44V97.48a17.39,17.39,0,0,0-5.09-12.29l-66-66A6.63,6.63,0,0,0,93,17.23"/><g class="cls-3"><rect x="17.23" y="0.69" width="158.5" height="165.4"/><g class="cls-4"><rect width="186.07" height="176.42"/></g></g></g></g></svg>