<svg xmlns="http://www.w3.org/2000/svg" xmlns:xlink="http://www.w3.org/1999/xlink" viewBox="0 0 195.14 177.07"><defs><style>.cls-1{clip-rule:evenodd;}.cls-2{fill-rule:evenodd;}.cls-3{clip-path:url(#clip-path);}.cls-4{clip-path:url(#clip-path-2);}</style><clipPath id="clip-path"><path class="cls-1" d="M154.7,24.54a41.88,41.88,0,0,0-22.27-6.47c-13.27,0-26.22,6.4-34.87,18-8.65-11.62-21.6-18-34.87-18a41.89,41.89,0,0,0-22.27,6.47C19,37.88,11.72,67.42,24.07,90.53c10.07,18.84,52.58,51.56,67.93,63a9.29,9.29,0,0,0,11.13,0c15.36-11.44,57.87-44.17,67.94-63C183.42,67.42,176.09,37.88,154.7,24.54Zm10,62.58c-7.55,14.12-39,40.57-65.88,60.62a2.08,2.08,0,0,1-2.49,0c-26.9-20-58.33-46.5-65.88-60.62C19.87,67.34,26.07,42,44.25,30.67A34.87,34.87,0,0,1,62.7,25.3c11.33,0,21.92,5.51,29.07,15.11l5.79,7.79,5.8-7.79c7.16-9.6,17.75-15.11,29.08-15.11a34.85,34.85,0,0,1,18.44,5.37C169.07,42,175.27,67.34,164.7,87.12Z"/></clipPath><clipPath id="clip-path-2"><rect x="10.84" y="3.61" width="173.45" height="173.45"/></clipPath></defs><title>like pr 14</title><g id="Layer_2" data-name="Layer 2"><g id="Layer_1-2" data-name="Layer 1"><path class="cls-2" d="M154.7,24.54a41.88,41.88,0,0,0-22.27-6.47c-13.27,0-26.22,6.4-34.87,18-8.65-11.62-21.6-18-34.87-18a41.89,41.89,0,0,0-22.27,6.47C19,37.88,11.72,67.42,24.07,90.53c10.07,18.84,52.58,51.56,67.93,63a9.29,9.29,0,0,0,11.13,0c15.36-11.44,57.87-44.17,67.94-63C183.42,67.42,176.09,37.88,154.7,24.54Zm10,62.58c-7.55,14.12-39,40.57-65.88,60.62a2.08,2.08,0,0,1-2.49,0c-26.9-20-58.33-46.5-65.88-60.62C19.87,67.34,26.07,42,44.25,30.67A34.87,34.87,0,0,1,62.7,25.3c11.33,0,21.92,5.51,29.07,15.11l5.79,7.79,5.8-7.79c7.16-9.6,17.75-15.11,29.08-15.11a34.85,34.85,0,0,1,18.44,5.37C169.07,42,175.27,67.34,164.7,87.12Z"/><g class="cls-3"><rect x="10.84" y="3.61" width="173.45" height="173.45"/><g class="cls-4"><rect width="195.14" height="173.45"/></g></g><polygon points="98.07 39.02 76.07 23.02 61.07 21.02 47.07 24.02 40.07 30.02 31.07 36.02 25.07 46.02 23.07 58.02 21.07 73.02 23.07 82.02 27.07 92.02 34.07 99.02 52.07 118.02 96.07 152.02 128.07 130.02 168.07 91.02 174.07 62.02 169.07 45.02 160.07 33.02 149.07 25.02 139.07 22.02 124.07 21.02 112.07 26.02 104.07 32.02 98.07 39.02"/></g></g></svg>