<svg xmlns="http://www.w3.org/2000/svg" xmlns:xlink="http://www.w3.org/1999/xlink" viewBox="0 0 52.71 52.67"><defs><style>.cls-1,.cls-2,.cls-5{fill:none;stroke:#000;stroke-miterlimit:10;stroke-width:2px;}.cls-1{clip-rule:evenodd;}.cls-3{clip-path:url(#clip-path);}.cls-4{clip-path:url(#clip-path-2);}.cls-5{fill-rule:evenodd;}</style><clipPath id="clip-path"><path class="cls-1" d="M47.71,46.26l-9.58-9.58a19.06,19.06,0,1,0-1.41,1.41l9.58,9.58ZM7,24A17,17,0,1,1,24,41,17,17,0,0,1,7,24Z"/></clipPath><clipPath id="clip-path-2"><rect class="cls-2" x="3" y="3" width="48" height="48"/></clipPath></defs><title>Asset 26</title><g id="Layer_2" data-name="Layer 2"><g id="Layer_1-2" data-name="Layer 1"><g class="cls-3"><g class="cls-4"><rect width="52.71" height="52.67"/></g><rect class="cls-2" x="3" y="3" width="48" height="48"/></g><path class="cls-5" d="M47.71,46.26l-9.58-9.58a19.06,19.06,0,1,0-1.41,1.41l9.58,9.58ZM7,24A17,17,0,1,1,24,41,17,17,0,0,1,7,24Z"/></g></g></svg>