<svg xmlns="http://www.w3.org/2000/svg" viewBox="0 0 149.42 142.39"><defs><style>.cls-1{stroke:#231f20;stroke-miterlimit:10;stroke-width:0.5px;}</style></defs><title>star 4</title><g id="Layer_2" data-name="Layer 2"><g id="Layer_1-2" data-name="Layer 1"><path class="cls-1" d="M.25,54.33a3.88,3.88,0,0,1,3.26-2.05q19.63-2.81,39.25-5.69c2.2-.32,4.4-.72,6.62-.93a2.26,2.26,0,0,0,2-1.5Q61.57,23.5,71.78,2.87a8.67,8.67,0,0,1,.93-1.63,2.54,2.54,0,0,1,4,0,8.1,8.1,0,0,1,.86,1.51Q87.77,23.33,97.9,43.92a2.81,2.81,0,0,0,2.46,1.78c15.3,2.16,30.58,4.41,45.87,6.63a3,3,0,0,1,2.8,2c.45,1.36-.23,2.31-1.15,3.21q-16.51,16.08-33,32.15a3.33,3.33,0,0,0-1,3.42c2.62,15,5.18,30.06,7.77,45.09.24,1.37.28,2.62-1,3.52s-2.46.32-3.66-.3Q96.48,130.6,76,119.84a2.48,2.48,0,0,0-2.65,0q-20.48,10.83-41,21.55a4.89,4.89,0,0,1-2.85.54c-1.41-.23-2-1.56-1.74-3.19q1.85-11,3.74-21.91c1.39-8.11,2.77-16.23,4.22-24.33a2.62,2.62,0,0,0-.93-2.63q-16.44-16-32.81-32a25.47,25.47,0,0,1-1.75-2.1Zm33.66,80.22c.71-.35,1.18-.57,1.65-.81,12.26-6.44,24.52-12.86,36.75-19.36a4.65,4.65,0,0,1,4.88,0c12.22,6.5,24.49,12.92,36.75,19.36.45.24.91.45,1.54.76-.07-.61-.1-1-.17-1.36-2.37-13.84-4.72-27.68-7.15-41.51a4.42,4.42,0,0,1,1.47-4.38c10-9.67,19.94-19.4,29.92-29.1a6.76,6.76,0,0,1,1.3-.79l-.41-.49L135,56.09c-12.46-1.81-24.91-3.65-37.38-5.4a4.4,4.4,0,0,1-3.68-2.78Q84.77,29.2,75.5,10.53c-.22-.44-.47-.87-.8-1.48-.37.72-.62,1.19-.86,1.66Q64.56,29.52,55.28,48.34a3.49,3.49,0,0,1-2.78,2.24q-19.13,2.74-38.24,5.53c-1.78.26-3.55.55-5.77.9.72.59,1.12.88,1.46,1.21Q25,72.88,40.05,87.55a3.82,3.82,0,0,1,1.27,3.75c-2.06,11.73-4.05,23.47-6.06,35.21C34.82,129.11,34.39,131.72,33.91,134.56Z"/></g></g></svg>