<svg xmlns="http://www.w3.org/2000/svg" viewBox="0 0 149 141.96"><title>star pr5</title><g id="Layer_2" data-name="Layer 2"><g id="Layer_1-2" data-name="Layer 1"><path d="M148.86,54.06a2.9,2.9,0,0,0-2.66-1.93Q123,48.76,99.87,45.43A2.36,2.36,0,0,1,97.82,44Q87.64,23.22,77.4,2.51A8.09,8.09,0,0,0,76.54,1a2.55,2.55,0,0,0-4,0,8.65,8.65,0,0,0-.93,1.64Q61.37,23.27,51.19,43.94a2.27,2.27,0,0,1-2,1.5c-2.22.21-4.42.61-6.62.93Q22.9,49.22,3.26,52.06A3.88,3.88,0,0,0,0,54.11v1.46a25.38,25.38,0,0,0,1.75,2.11q16.39,16,32.83,32a2.62,2.62,0,0,1,.93,2.63C34,101,32.49,109.67,31,118.36q-1.73,10.1-3.45,20.2c-.29,1.72.49,3.12,2,3.29a4.88,4.88,0,0,0,2.58-.63q20.54-10.74,41-21.57a2.48,2.48,0,0,1,2.65,0q20.43,10.8,40.89,21.53c1.19.63,2.36,1.22,3.66.3s1.22-2.27,1-3.66c-2.58-15-5.13-30-7.75-45a3.33,3.33,0,0,1,1-3.42q16.59-16,33.06-32.17C148.63,56.38,149.31,55.42,148.86,54.06Z"/></g></g></svg>